<?xml version="1.0" encoding="UTF-8" standalone="no"?>
<svg width="128px" height="128px" viewBox="0 0 128 128" version="1.1" xmlns="http://www.w3.org/2000/svg" xmlns:xlink="http://www.w3.org/1999/xlink">
    <!-- Generator: Sketch 42 (36781) - http://www.bohemiancoding.com/sketch -->
    <title>icon</title>
    <desc>Created with Sketch.</desc>
    <defs>
        <rect id="path-1" x="0" y="0" width="99.2268908" height="99.2268908"></rect>
        <mask id="mask-2" maskContentUnits="userSpaceOnUse" maskUnits="objectBoundingBox" x="0" y="0" width="99.2268908" height="99.2268908" fill="white">
            <use xlink:href="#path-1"></use>
        </mask>
    </defs>
    <g id="Page-1" stroke="none" stroke-width="1" fill="none" fill-rule="evenodd">
        <g id="icon">
            <g id="jssico" transform="translate(2.000000, 14.000000)">
                <path d="M91.8846052,77.5937194 C91.8918054,77.3900749 91.8954286,77.1846028 91.8954286,76.9773277 C91.8954286,69.0120254 87.9590327,64.7854607 78.4839099,60.7223612 L76.188606,59.7391025 C72.4658497,58.126444 71.7585714,57.4826407 71.7585714,56.0042773 C71.7585714,54.8528468 72.6033598,54.0713782 74.150395,54.0713782 C76.026502,54.0713782 77.0778983,54.7688787 78.3095984,56.9781699 L79.3459932,58.8371435 L89.8780797,52.075221 L88.9415939,50.4277232 C85.6553738,44.6464935 80.9137497,42.0681092 74.150395,42.0681092 C65.078138,42.0681092 58.7103193,47.9853614 58.7103193,56.1903277 C58.7103193,63.8880391 62.6495524,68.3234059 70.9479929,71.8580468 L73.2367894,72.8399984 C77.8850259,74.8726505 78.706605,75.517939 78.706605,77.0941261 C78.706605,78.5128015 77.2141811,79.6203193 74.4749496,79.6203193 C71.1686133,79.6203193 69.0813506,78.1942554 67.1271971,75.0027109 L66.1066495,73.3359415 L64.4167843,74.3177731 C64.1837126,74.4531905 64.1837126,74.4531905 63.2514869,74.9948569 C62.0862054,75.6719638 61.5035554,76.0105388 60.6865099,76.485365 C59.6379924,77.0947115 58.7642516,77.6025671 58.1234629,77.9751394 C57.6282394,78.2631003 57.6282394,78.2631003 57.2783038,78.4667 C57.135956,78.549558 57.135956,78.549558 57.0402907,78.605309 C57.0017345,78.6277983 57.0017345,78.6277983 56.936936,78.6659145 L55.9640084,80.8594243 L56.179611,81.2853366 C59.4839038,87.8128041 66.0203632,91.7662269 74.6878739,91.7662269 C82.1833746,91.7662269 87.9968811,88.6885444 90.5217072,83.3893565 C94.0874679,88.6519376 100.100873,91.7651933 107.792445,91.7651933 C117.936589,91.7651933 125,86.1281253 125,76.9762941 C125,69.0109916 121.063436,64.7842277 111.589397,60.7223108 L109.294211,59.7391025 C105.571455,58.126444 104.864176,57.4826407 104.864176,56.0042773 C104.864176,54.8528468 105.708965,54.0713782 107.256,54.0713782 C109.132107,54.0713782 110.183503,54.7688787 111.415203,56.9781699 L112.451598,58.8371435 L122.983685,52.075221 L122.047199,50.4277232 C118.760979,44.6464935 114.019355,42.0681092 107.256,42.0681092 C98.183743,42.0681092 91.8159244,47.9853614 91.8159244,56.1903277 C91.8159244,63.8880391 95.7551575,68.3234059 104.053598,71.8580468 L106.342394,72.8399984 C110.990631,74.8726505 111.81221,75.517939 111.81221,77.0941261 C111.81221,78.5128015 110.319786,79.6203193 107.580555,79.6203193 C104.274218,79.6203193 102.186956,78.1942554 100.232802,75.0027109 L99.2122102,73.3358692 L91.8846052,77.5937194 Z" id="Shape_outline" fill="#FFFFFF" fill-rule="nonzero"></path>
                <g id="Rectangle">
                    <use stroke="#000000" mask="url(#mask-2)" stroke-width="4" fill="#F7DF1E" fill-rule="evenodd" xlink:href="#path-1"></use>
                    <use stroke="#FFFFFF" stroke-width="2" xlink:href="#path-1"></use>
                </g>
                <path d="M65.4215294,76.0470756 C67.3884958,79.2595462 69.9477227,81.6203193 74.4749496,81.6203193 C78.2776134,81.6203193 80.706605,79.7195042 80.706605,77.0941261 C80.706605,73.9478067 78.2114622,72.8325378 74.0253277,71.0020084 L71.7317395,70.0180084 C65.1093782,67.1972773 60.7103193,63.6623193 60.7103193,56.1903277 C60.7103193,49.3074958 65.9538403,44.0681092 74.150395,44.0681092 C79.9851429,44.0681092 84.1805798,46.0991597 87.2028655,51.4160672 L80.0564622,56.0042773 C78.4833025,53.1825126 76.7861092,52.0713782 74.150395,52.0713782 C71.4619664,52.0713782 69.7585714,53.7768403 69.7585714,56.0042773 C69.7585714,58.7567899 71.4640336,59.8720588 75.4010672,61.577521 L77.6956891,62.5604874 C85.4932689,65.9042269 89.8954286,69.313084 89.8954286,76.9773277 C89.8954286,85.239 83.4053697,89.7662269 74.6878739,89.7662269 C66.1646975,89.7662269 60.6586387,85.7051597 57.9640084,80.3820504 C57.9640084,80.3799832 65.4215294,76.0470756 65.4215294,76.0470756 L65.4215294,76.0470756 Z M98.5271345,76.0470756 C100.494101,79.2595462 103.053328,81.6203193 107.580555,81.6203193 C111.383218,81.6203193 113.81221,79.7195042 113.81221,77.0941261 C113.81221,73.9478067 111.317067,72.8325378 107.130933,71.0020084 L104.837345,70.0180084 C98.2149832,67.1972773 93.8159244,63.6623193 93.8159244,56.1903277 C93.8159244,49.3074958 99.0594454,44.0681092 107.256,44.0681092 C113.090748,44.0681092 117.286185,46.0991597 120.308471,51.4160672 L113.162067,56.0042773 C111.588908,53.1825126 109.891714,52.0713782 107.256,52.0713782 C104.567571,52.0713782 102.864176,53.7768403 102.864176,56.0042773 C102.864176,58.7567899 104.569639,59.8720588 108.506672,61.577521 L110.801294,62.5604874 C118.59784,65.9031933 123,69.3120504 123,76.9762941 C123,85.2379664 116.509941,89.7651933 107.792445,89.7651933 C99.2692689,89.7651933 93.7632101,85.7041261 91.0685798,80.3810168 L98.5271345,76.0470756 L98.5271345,76.0470756 Z M33.0032773,76.842958 C34.4451681,79.4011513 35.7568235,81.5634706 38.9093445,81.5634706 C41.924395,81.5634706 43.8262437,80.3841176 43.8262437,75.7969412 L43.8262437,44.5911176 L53.0026639,44.5911176 L53.0026639,75.9199412 C53.0026639,85.4219496 47.4314874,89.7476218 39.2990168,89.7476218 C31.9510588,89.7476218 27.6956723,85.944958 25.5312857,81.3650168 L33.0032773,76.842958 C33.0032773,76.8419244 33.0032773,76.842958 33.0032773,76.842958 L33.0032773,76.842958 Z" id="Shape" fill="#000000" fill-rule="nonzero"></path>
            </g>
        </g>
    </g>
</svg>